<svg id="Layer_1" data-name="Layer 1" xmlns="http://www.w3.org/2000/svg" viewBox="0 0 2732 2732"><defs><style>.cls-1{fill:#2378bc;}.cls-2{fill:#fff;}</style></defs><path class="cls-1" d="M2585.68,2043.89H125.9c-56-27.62-74.43-72.81-74.22-134.32,1.55-451.58.78-903.17.88-1354.75,0-97.76,34.4-132,132.69-132q1169.58-.12,2339.16-.84c61.58-.1,107.13,17.85,134.7,74V1970.62ZM2221.26,1002.82l-5.54-11.93c-34.83,0-69.72,1.4-104.47-.28-79.53-3.85-158.94-9.08-215.66,79.53-8.06-12-15.71-21.59-21.5-32.22-23-42.16-59.67-48.54-104.3-47.84q-213.26,3.31-426.59-.17c-40.39-.72-61.74,12.36-74.21,49.81-9.7,29.14-25.29,56.33-42.94,94.48-20.41-43.92-36.77-74.88-49.27-107.34-10.23-26.58-25.6-37.59-54.74-36.48-53.44,2-107,1.68-160.52.2-29-.8-43,9.4-41.51,39.24.42,8.31-2.4,16.78-3.74,25.18-15.35-79.1-75.41-64.22-127.72-64.34-18.35,0-36.91,1.77-55-.37-35.61-4.21-54.62,9-68.49,43.55-52.8,131.67-109.17,261.92-163.95,392.81-5.67,13.55-9.63,27.82-17,49.35,61.09,0,115.82-2.81,170.1.9,42,2.87,67-9.48,75.51-51.77,5.5-27.39,21.14-39.69,51.51-39.91,31.45-.21,50.34,10.22,55.74,40.6,7.82,44,35.21,51.27,75.83,51,265.84-1.64,531.71-2.56,797.53.32,70.34.77,133.63-1.5,173.75-69.6,1.91-3.23,7.54-4.28,15.2-8.34,11.88,12.87,23.34,26.84,36.44,39.06,14.07,13.14,29.23,34.48,44.71,35.19,78.37,3.61,157,1.66,247.68,1.66-56.14-70.35-101.75-133.12-153.48-190.39-34-37.62-36.67-63.84-.9-102.4C2126.34,1125.65,2172.42,1063,2221.26,1002.82Z"/><path class="cls-2" d="M2221.26,1002.82c-48.84,60.14-94.92,122.83-147.5,179.52-35.77,38.56-33.09,64.78.9,102.4,51.73,57.27,97.34,120,153.48,190.39-90.68,0-169.31,1.95-247.68-1.66-15.48-.71-30.64-22-44.71-35.19-13.1-12.22-24.56-26.19-36.44-39.06-7.66,4.06-13.29,5.11-15.2,8.34-40.12,68.1-103.41,70.37-173.75,69.6-265.82-2.88-531.69-2-797.53-.32-40.62.25-68-7-75.83-51-5.4-30.38-24.29-40.81-55.74-40.6-30.37.22-46,12.52-51.51,39.91-8.49,42.29-33.54,54.64-75.51,51.77-54.28-3.71-109-.9-170.1-.9,7.34-21.53,11.3-35.8,17-49.35,54.78-130.89,111.15-261.14,163.95-392.81,13.87-34.6,32.88-47.76,68.49-43.55,18.09,2.14,36.65.33,55,.37,52.31.12,112.37-14.76,127.72,64.34,1.34-8.4,4.16-16.87,3.74-25.18-1.52-29.84,12.46-40,41.51-39.24,53.48,1.48,107.08,1.83,160.52-.2,29.14-1.11,44.51,9.9,54.74,36.48,12.5,32.46,28.86,63.42,49.27,107.34,17.65-38.15,33.24-65.34,42.94-94.48,12.47-37.45,33.82-50.53,74.21-49.81q213.24,3.83,426.59.17c44.63-.7,81.33,5.68,104.3,47.84,5.79,10.63,13.44,20.25,21.5,32.22,56.72-88.61,136.13-83.38,215.66-79.53,34.75,1.68,69.64.28,104.47.28Zm-988.14,273.32-12.7,1.38q-31.92-70-63.8-140c-39.57-87.31-39.48-86.12-134.65-83.11-30.68,1-40.38,13.54-39.75,41.45.76,33.55,0,67.14,0,100.71q-.06,81.2,0,162.38l-11.25,2.1c-6.36-12.85-13.37-25.42-19-38.58-32.88-77.21-68-153.61-97-232.27-14.8-40.22-42.93-35.3-73-36-31.3-.74-58.07-1.57-72.62,37.46-29.81,80-65.44,157.81-98.36,236.66-10.39,24.9-19.74,50.22-29.77,75.88,73.29,18.35,79.29,14.43,105.88-43.45,7-15.29,25.16-36.24,38.09-36.16,48.56.28,97.11,7.88,145.52,13.89,3.12.38,6.36,10.25,7.31,16.06,8.44,52.08,41.67,64.69,89,58.27,18-2.44,36.83-2.08,55-.11,38.21,4.15,51-11.62,49.47-49.4-2.51-63-.68-126.19-.68-189.3,36.81,57.59,62.5,117.28,89.33,176.45,13.07,28.83,16.1,63,64.6,63.62,51.56.68,53.16-36.52,66.82-66.46,12-26.35,22-53.63,33.12-80.39,12.34-29.68,24.95-59.25,37.43-88.86l11.84,3.42c0,62.18,2,124.45-.71,186.53-1.69,39.37,17.72,44.83,50.1,44.67,31.53-.15,52.31-3.58,51-43.72-2.39-76.22-.26-152.57-.68-228.87-.54-96.56,8.71-82.18-86.37-86.34-42-1.85-63.64,12.14-78.48,51.14C1286.7,1163.32,1258.65,1219.25,1233.12,1276.14Zm664-112.07c-20.36-24-41.45-45.85-58.86-70.29-20.38-28.61-44.55-41.33-80.86-39.61-61,2.88-122.21,1.95-183.28.38-31.38-.8-43.6,10.39-43.13,42.26q2,137.18,0,274.4c-.5,32.52,12.93,42.28,43.67,41.51,61.07-1.53,122.33,1.71,183.25-1.65,20.14-1.11,43.06-12.45,58.41-26.14,27.9-24.89,51.07-55,79.28-86.4,29.26,32.53,55.56,59.78,79.55,88.92,31.36,38.09,69.16,24.16,115.72,19.43-24.29-31.15-43.35-56.26-63.1-80.81-75.76-94.2-75.77-94.07.32-186.39,20.22-24.53,39.83-49.57,60.69-75.58C1979.62,1022.76,1956.88,1121.78,1897.12,1164.07Z"/><path class="cls-1" d="M1233.12,1276.14c25.53-56.89,53.58-112.82,75.71-171,14.84-39,36.49-53,78.48-51.14,95.08,4.16,85.83-10.22,86.37,86.34.42,76.3-1.71,152.65.68,228.87,1.26,40.14-19.52,43.57-51,43.72-32.38.16-51.79-5.3-50.1-44.67,2.67-62.08.71-124.35.71-186.53l-11.84-3.42c-12.48,29.61-25.09,59.18-37.43,88.86-11.12,26.76-21.1,54-33.12,80.39-13.66,29.94-15.26,67.14-66.82,66.46-48.5-.63-51.53-34.79-64.6-63.62-26.83-59.17-52.52-118.86-89.33-176.45,0,63.11-1.83,126.29.68,189.3,1.51,37.78-11.26,53.55-49.47,49.4-18.13-2-36.94-2.33-55,.11-47.36,6.42-80.59-6.19-89-58.27-1-5.81-4.19-15.68-7.31-16.06-48.41-6-97-13.61-145.52-13.89-12.93-.08-31.07,20.87-38.09,36.16-26.59,57.88-32.59,61.8-105.88,43.45,10-25.66,19.38-51,29.77-75.88,32.92-78.85,68.55-156.67,98.36-236.66,14.55-39,41.32-38.2,72.62-37.46,30.1.71,58.23-4.21,73,36,28.95,78.66,64.11,155.06,97,232.27,5.6,13.16,12.61,25.73,19,38.58l11.25-2.1q0-81.18,0-162.38c0-33.57.78-67.16,0-100.71-.63-27.91,9.07-40.48,39.75-41.45,95.17-3,95.08-4.2,134.65,83.11q31.76,70.08,63.8,140ZM831,1244.88c-17.08-39.33-30.9-71.15-44.71-103l-12.22.82-41.7,102.15Z"/><path class="cls-1" d="M1897.12,1164.07c59.76-42.29,82.5-141.31,191.65-100-20.86,26-40.47,51.05-60.69,75.58-76.09,92.32-76.08,92.19-.32,186.39,19.75,24.55,38.81,49.66,63.1,80.81-46.56,4.73-84.36,18.66-115.72-19.43-24-29.14-50.29-56.39-79.55-88.92-28.21,31.36-51.38,61.51-79.28,86.4-15.35,13.69-38.27,25-58.41,26.14-60.92,3.36-122.18.12-183.25,1.65-30.74.77-44.17-9-43.67-41.51q2.1-137.18,0-274.4c-.47-31.87,11.75-43.06,43.13-42.26,61.07,1.57,122.31,2.5,183.28-.38,36.31-1.72,60.48,11,80.86,39.61C1855.67,1118.22,1876.76,1140,1897.12,1164.07Zm-210,175c70.3,19.64,91.75-40.44,129-75.48,24.29-22.86,17.05-39.41,1.89-65.93-36.52-63.84-89.18-78.86-157.07-71.17-27.59,3.12-41.79,8.75-41.34,39.48.42,28.61,13.37,37.41,39.43,36.23,18.25-.83,37.7-3.23,54.48,1.94,10.55,3.24,23.58,19.11,23.71,29.46.12,10.13-13,26.55-23.33,29.34-18.53,5-39.32,2.82-59.1,2-25.72-1-34.35,11-35,35.69C1618.39,1357.45,1661.4,1334,1687.1,1339.1Z"/><path class="cls-2" d="M831,1244.88H732.36l41.7-102.15,12.22-.82C800.09,1173.73,813.91,1205.55,831,1244.88Z"/><path class="cls-2" d="M1687.1,1339.1c-25.7-5.15-68.71,18.35-67.31-38.4.61-24.73,9.24-36.71,35-35.69,19.78.78,40.57,3,59.1-2,10.29-2.79,23.45-19.21,23.33-29.34-.13-10.35-13.16-26.22-23.71-29.46-16.78-5.17-36.23-2.77-54.48-1.94-26.06,1.18-39-7.62-39.43-36.23-.45-30.73,13.75-36.36,41.34-39.48,67.89-7.69,120.55,7.33,157.07,71.17,15.16,26.52,22.4,43.07-1.89,65.93C1778.85,1298.66,1757.4,1358.74,1687.1,1339.1Z"/></svg>