<svg id="Layer_1" data-name="Layer 1" xmlns="http://www.w3.org/2000/svg" viewBox="0 0 1023.24 896.85"><path d="M956.38,422.3a29.9,29.9,0,0,1-54.73-7.38c-45.19-171.6-202.07-291.47-381.51-291.47-83.93,0-163.77,25.38-230.88,73.37A385.81,385.81,0,0,0,154.1,370L249,326.76a29.49,29.49,0,0,1,38.86,14.37,30,30,0,0,1-14.05,40.06L110.21,455.54a28.3,28.3,0,0,1-12.34,2.77,30.83,30.83,0,0,1-11.22-2.14,29.93,29.93,0,0,1-16.8-16.78L3.24,272.33a20.28,20.28,0,0,1-1.47-3.64,29.94,29.94,0,0,1,56.9-18.62l39.26,98.18A446.34,446.34,0,0,1,254.32,148.06c77.36-55.27,169.29-84.49,265.82-84.49,206.54,0,387.2,138.2,439.35,336.08A29.72,29.72,0,0,1,956.38,422.3Z" transform="translate(-0.38 -63.57)"/><path d="M1003.86,791.86a30,30,0,0,1-38.28-17.79l-39.34-98.34a447,447,0,0,1-156.45,200.2C692.45,931.21,600.54,960.42,504,960.42c-206.8,0-387.46-138.19-439.33-336.07a29.9,29.9,0,0,1,57.82-15.25C167.73,780.7,324.61,900.54,504,900.54c83.85,0,163.67-25.37,230.87-73.36A387.35,387.35,0,0,0,870.43,654.07L774,698a30,30,0,0,1-22.9,0,29.55,29.55,0,0,1-16.27-16.21,29.85,29.85,0,0,1,0-22.92,29.55,29.55,0,0,1,16-16.2l163.27-74.21a30.72,30.72,0,0,1,23.61-.58,29.8,29.8,0,0,1,16.75,16.74l67.39,169v.26A30,30,0,0,1,1003.86,791.86Z" transform="translate(-0.38 -63.57)"/></svg>