<svg id="bold" xmlns="http://www.w3.org/2000/svg" viewBox="0 0 761.07 1024"><path d="M807.8,394.4H761.07V249.07C761.07,111.74,649.33,0,512,0S262.93,111.74,262.93,249.07V394.4H216.2a84.83,84.83,0,0,0-84.73,84.73V939.27A84.83,84.83,0,0,0,216.2,1024H807.8a84.83,84.83,0,0,0,84.73-84.73V479.13A84.83,84.83,0,0,0,807.8,394.4ZM569.69,726.52v92.24a57.69,57.69,0,0,1-115.38,0V726.52a101.51,101.51,0,1,1,115.38,0ZM701.16,394.4H322.84V249.07c0-104.3,84.86-189.16,189.16-189.16s189.16,84.86,189.16,189.16Z" transform="translate(-131.47)" fill="#fff"/></svg>