<svg id="Layer_2" data-name="Layer 2" xmlns="http://www.w3.org/2000/svg" xmlns:xlink="http://www.w3.org/1999/xlink" viewBox="0 0 2732 2732"><defs><style>.cls-1{fill:none;}.cls-2{clip-path:url(#clip-path);}.cls-3{fill:#4a5668;}.cls-4{fill:url(#linear-gradient);}.cls-5,.cls-6,.cls-7{opacity:0.23;}.cls-5{fill:url(#Degradado_sin_nombre_41);}.cls-6{fill:url(#Degradado_sin_nombre_41-2);}.cls-7{fill:url(#Degradado_sin_nombre_41-3);}.cls-8{font-size:173.31px;font-family:HelveticaNeue-Bold, Helvetica Neue;font-weight:700;}.cls-17,.cls-8{fill:#fff;}.cls-9{fill:#cecccc;}.cls-10{fill:#4c4c4c;}.cls-11{fill:#5d7a7f;}.cls-12{opacity:0.18;}.cls-13{fill:#f2f2f2;opacity:0.51;}.cls-14{fill:#222831;}.cls-15{fill:#1897ed;}.cls-16{fill:#153e49;}.cls-17{opacity:0.61;}.cls-18{fill:#ba656d;}</style><clipPath id="clip-path"><path id="SVGID" class="cls-1" d="M1364.37,74.45h0a1296.2,1296.2,0,0,1,1296.2,1296.2v1296.2a0,0,0,0,1,0,0H1364.37A1296.2,1296.2,0,0,1,68.17,1370.65v0A1296.2,1296.2,0,0,1,1364.37,74.45Z"/></clipPath><linearGradient id="linear-gradient" x1="260.22" y1="1791.75" x2="2263.4" y2="465.31" gradientUnits="userSpaceOnUse"><stop offset="0" stop-color="#1897ed"/><stop offset="1" stop-color="#ff3c36"/></linearGradient><linearGradient id="Degradado_sin_nombre_41" x1="991.1" y1="396.57" x2="1617.76" y2="1795.4" gradientUnits="userSpaceOnUse"><stop offset="0" stop-color="#fff"/><stop offset="1" stop-color="#fff" stop-opacity="0"/></linearGradient><linearGradient id="Degradado_sin_nombre_41-2" x1="1306.45" y1="255.3" x2="1933.11" y2="1654.13" xlink:href="#Degradado_sin_nombre_41"/><linearGradient id="Degradado_sin_nombre_41-3" x1="725.27" y1="515.66" x2="1351.92" y2="1914.49" xlink:href="#Degradado_sin_nombre_41"/></defs><g class="cls-2"><path class="cls-3" d="M1364.37,74.45h0a1296.2,1296.2,0,0,1,1296.2,1296.2v1296.2a0,0,0,0,1,0,0H1364.37A1296.2,1296.2,0,0,1,68.17,1370.65v0A1296.2,1296.2,0,0,1,1364.37,74.45Z"/><path class="cls-4" d="M291.83,362.62h2076A97.24,97.24,0,0,1,2465,459.87V1707.13a97.25,97.25,0,0,1-97.25,97.25h-2076a97.25,97.25,0,0,1-97.25-97.25V459.87a97.25,97.25,0,0,1,97.25-97.25Z"/><rect class="cls-3" x="194.89" y="570.48" width="2273.78" height="296.89"/><polygon class="cls-5" points="787.48 362.62 1334.07 1804.38 1810.19 1804.38 1263.61 362.62 787.48 362.62"/><polygon class="cls-6" points="1340.54 362.62 1887.13 1804.38 2014.41 1804.38 1467.82 362.62 1340.54 362.62"/><polygon class="cls-7" points="680.87 362.62 1227.46 1804.38 1278.43 1804.38 731.84 362.62 680.87 362.62"/><text class="cls-8" transform="translate(281.54 1703.53)">BANK</text><rect class="cls-9" x="292.65" y="943.41" width="1737.92" height="188.27"/><path class="cls-10" d="M1875.43,1060.2,1863,1014.4l-10.64,4.36-1.84-6.8,9.84-4.19h8l14.22,52.43h9.15l1.7,6.29h-27.25l-1.7-6.29Z"/><path class="cls-10" d="M1917.9,1040q1.62-3.86,2.15-5.49a9,9,0,0,0,.41-3.32,29.74,29.74,0,0,0-1-4.86l-1.6-5.87a8.2,8.2,0,0,0-3.12-4.45,8.92,8.92,0,0,0-5.54-1.84h-10.06l-1.72-6.38h9.22a20,20,0,0,1,12.15,3.56q4.88,3.57,6.81,10.7l1,3.52a33.2,33.2,0,0,1,1.26,6.8,15.43,15.43,0,0,1-.43,4.61,46.61,46.61,0,0,1-2.08,5.62l-7.66,17.53h20l1.73,6.38h-27.67l-2-7.39Z"/><path class="cls-10" d="M1979.9,1063.34q-2.51,3.15-10.05,3.15h-10.73l-1.71-6.29h11.49c2.12,0,3.56-.49,4.29-1.47s.83-2.53.25-4.66l-2.34-8.64a8.07,8.07,0,0,0-2.87-4.4,7.79,7.79,0,0,0-4.89-1.63h-9l-1.7-6.3h8.13a4.65,4.65,0,0,0,3.9-1.67,4.87,4.87,0,0,0,.55-4.45l-1.86-6.88a8.36,8.36,0,0,0-2.72-4.61,8.07,8.07,0,0,0-5-1.43H1944.9l-1.71-6.29h9.73q7.13,0,11.63,3.15t6.34,9.94l1.43,5.28q1.76,6.46-2,9.73a15.24,15.24,0,0,1,8.25,10.32l1.91,7C1981.77,1057.88,1981.56,1061.24,1979.9,1063.34Z"/><polygon class="cls-11" points="2351.88 1847.88 2259.82 1915.76 1983.07 1534.16 2075.14 1466.28 2351.88 1847.88"/><path class="cls-12" d="M1987.22,1539.87l213,98.94-121-166.82S2031.58,1515.14,1987.22,1539.87Z"/><ellipse class="cls-13" cx="1776.23" cy="1126.39" rx="447.14" ry="443.22" transform="matrix(0.37, -0.93, 0.93, 0.37, 66.21, 2350.97)"/><path class="cls-12" d="M1799.65,1513.38C1717,1505,1638.6,1478.91,1566.42,1438c-69.12-39.16-138.28-92.9-182-160.51-18.18-28.08-33.09-58.26-42.32-90.48,17.2,111.57,76.22,216.41,173.39,288.65,148,110,342.22,113,491.63,22.91C1940.23,1517.08,1867.94,1520.27,1799.65,1513.38Z"/><path class="cls-14" d="M2582.39,2235.21l-39.69,29.26a58.31,58.31,0,0,1-82-12.56L2177,1860.73a9.78,9.78,0,0,1,2.13-13.58l119-87.76a9.59,9.59,0,0,1,13.48,2.07l283.7,391.18A59.44,59.44,0,0,1,2582.39,2235.21Z"/><polygon class="cls-15" points="2363.5 1826.75 2228.86 1926.02 2217.1 1909.8 2351.74 1810.53 2363.5 1826.75"/><polygon class="cls-15" points="2390.88 1866.26 2256.25 1965.53 2244.49 1949.32 2379.12 1850.05 2390.88 1866.26"/><path class="cls-16" d="M2055.9,1512c-212.24,156.5-510.37,110.82-664.58-101.81s-107-512.95,105.24-669.44S2006.93,630,2161.14,842.59,2268.14,1355.53,2055.9,1512ZM1522.05,775.91c-192.9,142.23-235.81,415.17-95.65,608.43s411.11,234.77,604,92.54,235.81-415.17,95.65-608.43S1715,633.68,1522.05,775.91Z"/><path class="cls-17" d="M1964.89,789c-52.63-38.73-120.33-56.58-185.4-54.58-56.13,1.73-118.62,22.89-153.33,69.81-5.26,7.11.64,20,10.39,15.67,45.68-20.37,91.56-35.9,141.89-36.77,57.53-1,108.61,22.19,159.41,46C1961.82,840.26,1987.69,805.73,1964.89,789Z"/><path class="cls-18" d="M1608.52,1534.78c-224-90.58-332-348.14-240.58-574.15s348-336.19,572-245.62,332,348.14,240.58,574.15S1832.55,1625.36,1608.52,1534.78Zm328.28-812C1717,634,1465.31,742,1375.67,963.75s16.23,474.39,236,563.24,471.49-19.24,561.13-241S2156.58,811.66,1936.8,722.8Z"/></g></svg>