<svg id="Layer_1" enable-background="new 0 0 256 256" height="512" viewBox="0 0 256 256" width="512" xmlns="http://www.w3.org/2000/svg"><g id="Layer_28"><g><path d="m61.8 26.2c-4-.7-7.1-3.8-7.9-7.7 0-.1-.1-.2-.2-.1-.1 0-.1.1-.1.1-.8 4-3.9 7-7.9 7.7-.1 0-.2.1-.1.2 0 .1.1.1.1.1 4 .7 7.1 3.8 7.9 7.7 0 .1.1.2.2.1.1 0 .1-.1.1-.1.8-4 3.9-7 7.9-7.7.1 0 .2-.1.1-.2.1 0 0 0-.1-.1z" fill="#f5c84c"/><circle cx="84.5" cy="3" fill="#ef4460" r="3"/><circle cx="186" cy="195" fill="#b2e26d" r="3"/><circle cx="45.5" cy="98" fill="#5290db" r="3"/><path d="m198.5 170.2h-2.1v-2.1c0-1.5-1.3-2.8-2.8-2.8s-2.8 1.3-2.8 2.8v2.1h-2.1c-1.5 0-2.8 1.3-2.8 2.8s1.3 2.8 2.8 2.8h2.1v2.1c0 1.5 1.3 2.8 2.8 2.8s2.8-1.3 2.8-2.8v-2.1h2.1c1.5 0 2.8-1.3 2.8-2.8s-1.2-2.8-2.8-2.8z" fill="#70d6f9"/><path d="m201.8 115.2-5-2.9c-.7-.4-1-1.2-.9-1.9.5-3 .5-6 0-9-.1-.8.2-1.5.9-1.9l4.8-2.8c-.1-.2-.3-.3-.6-.4-1.8-.7-3.5-1.6-4.9-2.9-.4-.3-.9-.4-1.3-.1l-3.1 1.8c-.6.3-1.3.1-1.6-.4l-3.6-6.2c-.3-.6-.1-1.3.4-1.6l.6-.3c-.1-.1-.2-.1-.3-.2-2.3-2-4.9-3.5-7.8-4.5-.7-.3-1.2-1-1.2-1.7v-5.7c0-1-.8-1.9-1.9-1.9h-11.3c-1 0-1.9.8-1.9 1.9v5.5c0 .8-.5 1.5-1.2 1.7-2.8 1-5.5 2.6-7.8 4.5-.6.5-1.4.6-2.1.2l-5-2.9c-.9-.5-2-.2-2.6.7l-5.7 9.8c-.5.9-.2 2 .7 2.6l5 2.9c.7.4 1 1.2.9 1.9-.5 3-.5 6 0 9 .1.8-.2 1.5-.9 1.9l-5 2.9c-.9.5-1.2 1.7-.7 2.6l5.7 9.8c.5.9 1.7 1.2 2.6.7l5-2.9c.7-.4 1.5-.3 2.1.2 2.3 2 4.9 3.5 7.8 4.5.7.3 1.2 1 1.2 1.7v5.7c0 1 .8 1.9 1.9 1.9h11.3c1 0 1.9-.8 1.9-1.9v-5.7c0-.8.5-1.5 1.2-1.7 2.8-1 5.5-2.6 7.8-4.5.6-.5 1.4-.6 2.1-.2l5 2.9c.9.5 2 .2 2.6-.7l5.7-9.8c.4-.9.1-2-.8-2.6zm-31.2 3.9c-7.3 0-13.2-5.9-13.2-13.2s5.9-13.2 13.2-13.2 13.2 5.9 13.2 13.2-5.9 13.2-13.2 13.2z" fill="#3caadc"/><path d="m226.4 86.9-3.1-1.8c-.4-.2-.7-.7-.6-1.2.3-1.9.3-3.8 0-5.7-.1-.5.1-1 .6-1.2l3.1-1.8c.6-.3.8-1.1.4-1.6l-3.6-6.2c-.3-.6-1.1-.8-1.6-.4l-3.1 1.8c-.4.2-1 .2-1.3-.1-1.5-1.2-3.1-2.2-4.9-2.9-.5-.2-.8-.6-.8-1.1v-3.6c0-.7-.5-1.2-1.2-1.2h-7.2c-.7 0-1.2.5-1.2 1.2v3.6c0 .5-.3.9-.8 1.1-1.8.7-3.5 1.6-4.9 2.9-.4.3-.9.4-1.3.1l-3.1-1.8c-.6-.3-1.3-.1-1.6.4l-3.6 6.2c-.3.6-.1 1.3.4 1.6l3.1 1.8c.4.2.7.7.6 1.2-.3 1.9-.3 3.8 0 5.7.1.5-.1 1-.6 1.2l-3.1 1.8c-.6.3-.8 1.1-.4 1.6l3.6 6.2c.3.6 1.1.8 1.6.4l3.1-1.8c.4-.2 1-.2 1.3.1 1.5 1.2 3.1 2.2 4.9 2.9.5.2.8.6.8 1.1v3.6c0 .7.5 1.2 1.2 1.2h7.2c.7 0 1.2-.5 1.2-1.2v-3.6c0-.5.3-.9.8-1.1 1.8-.7 3.5-1.6 4.9-2.9.4-.3.9-.4 1.3-.1l3.1 1.8c.6.3 1.3.1 1.6-.4l3.6-6.2c.4-.6.2-1.3-.4-1.6zm-19.8 1.5c-4.1 0-7.4-3.3-7.4-7.4s3.3-7.4 7.4-7.4 7.4 3.3 7.4 7.4c.1 4.1-3.2 7.4-7.4 7.4z" fill="#70d6f9"/><path d="m61 187.1h105.6c1.9 0 3.4 1.5 3.4 3.4v21.2c0 1.9-1.5 3.4-3.4 3.4h-105.6c-1.9 0-3.4-1.5-3.4-3.4v-21.2c0-1.8 1.6-3.4 3.4-3.4z" fill="#c7d7e5"/><path d="m61 225.5h105.6c1.9 0 3.4 1.5 3.4 3.4v21.2c0 1.9-1.5 3.4-3.4 3.4h-105.6c-1.9 0-3.4-1.5-3.4-3.4v-21.2c0-1.9 1.6-3.4 3.4-3.4z" fill="#ef4460"/><path d="m164.9 139.5c-1 0-1.9-.8-1.9-1.9v-5.7c0-.8-.5-1.5-1.2-1.7-2.8-1-5.5-2.6-7.8-4.5-.6-.5-1.4-.6-2.1-.2l-5 2.9c-.9.5-2 .2-2.6-.7l-5.7-9.8c-.5-.9-.2-2 .7-2.6l5-2.9c.7-.4 1-1.2.9-1.9-.5-3-.5-6 0-9 .1-.8-.2-1.5-.9-1.9l-5-2.9c-.9-.5-1.2-1.7-.7-2.6l5.7-9.8c.5-.9 1.7-1.2 2.6-.7l5 2.9c.7.4 1.5.3 2.1-.2 2.3-2 4.9-3.5 7.8-4.5.7-.3 1.2-1 1.2-1.7v-5.3c-1.7-.8-3.5-1.1-5.3-1.1h-87.8c-7.1 0-12.9 5.8-12.9 12.9v72.4c0 7.1 5.8 12.9 12.9 12.9h87.9c7.1 0 12.9-5.8 12.9-12.9v-19.6h-5.8z" fill="#fcdd86"/><path d="m87.4 73.6v-17.3c0-14.6 11.9-26.4 26.5-26.4 14.5 0 26.3 11.8 26.4 26.4v17.3h15.2v-17.3c0-23-18.5-41.6-41.5-41.6s-41.6 18.5-41.6 41.5v.1 17.3z" fill="#c7d7e5"/><path d="m164.9 139.5c-1 0-1.9-.8-1.9-1.9v-5.7c0-.8-.5-1.5-1.2-1.7-2.8-1-5.5-2.6-7.8-4.5-.6-.5-1.4-.6-2.1-.2l-5 2.9c-.9.5-2 .2-2.6-.7l-5.7-9.8c-.5-.9-.2-2 .7-2.6l5-2.9c.7-.4 1-1.2.9-1.9-.5-3-.5-6 0-9 .1-.8-.2-1.5-.9-1.9l-5-2.9c-.9-.5-1.2-1.7-.7-2.6l3.4-5.9h-85v69.2h113.7v-17.9z" fill="#f5c84c"/><path d="m124.9 138-5.4-12.7c-.6-1.3-.2-2.8 1-3.7 4.8-3.6 5.7-10.5 2.1-15.3s-10.5-5.7-15.3-2.1-5.7 10.5-2.1 15.3c.6.8 1.3 1.5 2.1 2.1 1.1.9 1.5 2.4.9 3.7l-5.4 12.7c-.7 1.7.1 3.7 1.8 4.5.4.2.9.3 1.3.3h15.8c1.9 0 3.4-1.5 3.4-3.4 0-.5-.1-1-.2-1.4z" fill="#3a70bf"/><path d="m172.5 190.6c0-3.3-2.6-5.9-5.9-5.9h-105.6c-3.3 0-5.9 2.6-5.9 5.9v21.2c0 3.3 2.7 5.9 5.9 5.9h105.6c3.3 0 5.9-2.7 5.9-5.9zm-5 21.2c0 .5-.4.9-.9.9h-105.6c-.5 0-.9-.4-.9-.9v-21.2c0-.5.4-.9.9-.9h105.6c.5 0 .9.4.9.9z"/><path d="m110.7 234.2c-1-1-2.6-1-3.5 0l-1.7 1.7-1.7-1.7c-1-1-2.6-1-3.5 0-1 1-1 2.6 0 3.5l1.7 1.7-1.7 1.7c-1 1-1 2.6 0 3.5 1 1 2.6 1 3.5 0l1.7-1.7 1.7 1.7c1 1 2.6 1 3.5 0 1-1 1-2.6 0-3.5l-1.7-1.7 1.7-1.7c.9-.9.9-2.5 0-3.5z"/><path d="m127.5 234.2c-1-1-2.6-1-3.5 0l-1.7 1.7-1.7-1.7c-1-1-2.5-1-3.5 0s-1 2.5 0 3.5l1.7 1.7-1.7 1.7c-1 1-1 2.5 0 3.5s2.5 1 3.5 0l1.7-1.7 1.7 1.7c1 1 2.5 1 3.5 0s1-2.5 0-3.5l-1.7-1.7 1.7-1.7c1-.9 1-2.5 0-3.5z"/><path d="m77 234.2c-1-1-2.6-1-3.5 0l-1.7 1.7-1.7-1.7c-1-1-2.5-1-3.5 0s-1 2.5 0 3.5l1.7 1.7-1.7 1.7c-1 1-1 2.5 0 3.5s2.5 1 3.5 0l1.7-1.7 1.7 1.7c1 1 2.5 1 3.5 0s1-2.5 0-3.5l-1.7-1.7 1.7-1.7c1-.9 1-2.5 0-3.5z"/><path d="m93.8 234.2c-1-1-2.6-1-3.5 0l-1.7 1.7-1.7-1.7c-1-1-2.6-1-3.5 0-1 1-1 2.6 0 3.5l1.7 1.7-1.7 1.7c-1 1-1 2.6 0 3.5 1 1 2.6 1 3.5 0l1.7-1.7 1.7 1.7c1 1 2.6 1 3.5 0 1-1 1-2.6 0-3.5l-1.7-1.7 1.7-1.7c1-.9 1-2.5 0-3.5z"/><path d="m144.3 234.2c-1-1-2.6-1-3.5 0l-1.7 1.7-1.7-1.7c-1-1-2.6-1-3.5 0-1 1-1 2.6 0 3.5l1.7 1.7-1.7 1.7c-1 1-1 2.6 0 3.5 1 1 2.6 1 3.5 0l1.7-1.7 1.7 1.7c1 1 2.6 1 3.5 0 1-1 1-2.6 0-3.5l-1.7-1.7 1.7-1.7c1-.9 1-2.5 0-3.5z"/><path d="m161.1 234.2c-1-1-2.6-1-3.5 0l-1.7 1.7-1.7-1.7c-1-1-2.6-1-3.5 0-1 1-1 2.6 0 3.5l1.7 1.7-1.7 1.7c-1 1-1 2.6 0 3.5 1 1 2.6 1 3.5 0l1.7-1.7 1.7 1.7c1 1 2.6 1 3.5 0 1-1 1-2.6 0-3.5l-1.7-1.7 1.7-1.7c1-.9 1-2.5 0-3.5z"/><path d="m166.6 223h-105.6c-3.3 0-5.9 2.6-5.9 5.9v21.2c0 3.3 2.7 5.9 5.9 5.9h105.6c3.3 0 5.9-2.7 5.9-5.9v-21.2c0-3.3-2.6-5.9-5.9-5.9zm.9 27.1c0 .5-.4.9-.9.9h-105.6c-.5 0-.9-.4-.9-.9v-21.2c0-.5.4-.9.9-.9h105.6c.5 0 .9.4.9.9z"/><path d="m127.2 137-5.4-12.7c-.1-.3 0-.6.2-.7 3.9-2.9 5.8-7.7 5.2-12.4-1-7.3-7.7-12.5-15.1-11.5-6.6.9-11.6 6.6-11.6 13.3 0 4.2 2 8.2 5.3 10.7.2.2.3.5.2.7l-5.4 12.7c-1.3 3 .1 6.5 3.1 7.8.7.3 1.5.5 2.3.5h15.8c3.3 0 5.9-2.6 5.9-5.9-.1-1-.2-1.8-.5-2.5zm-4.7 2.8c-.2.3-.5.4-.8.4h-15.8c-.5 0-.9-.4-.9-.9 0-.1 0-.2.1-.4l5.4-12.7c1-2.4.3-5.1-1.7-6.7-3.7-2.8-4.4-8-1.7-11.7 1.8-2.4 4.7-3.6 7.7-3.3 4.6.5 7.9 4.7 7.4 9.3-.3 2.3-1.4 4.3-3.3 5.7-2.1 1.6-2.8 4.3-1.8 6.7l5.4 12.7c.2.4.2.7 0 .9z"/><path d="m156.3 198.6h-84.9c-1.4 0-2.5 1.1-2.5 2.5s1.1 2.5 2.5 2.5h84.9c1.4 0 2.5-1.1 2.5-2.5s-1.1-2.5-2.5-2.5z"/><path d="m206.6 71c-5.5 0-9.9 4.5-9.9 9.9s4.5 9.9 9.9 9.9c5.5 0 9.9-4.5 9.9-9.9.1-5.4-4.4-9.9-9.9-9.9zm0 14.9c-2.7 0-4.9-2.2-4.9-4.9s2.2-4.9 4.9-4.9 4.9 2.2 4.9 4.9c.1 2.7-2.1 4.9-4.9 4.9z"/><path d="m229 72.2-3.6-6.2c-1-1.8-3.3-2.4-5-1.3l-2.4 1.3c-1.3-1-2.6-1.8-4.1-2.4v-2.7c0-2-1.7-3.7-3.7-3.7h-7.2c-2 0-3.7 1.7-3.7 3.7v2.7c-1.5.6-2.8 1.4-4.1 2.4l-2.4-1.4c-1.8-1-4-.4-5 1.3l-3.6 6.2c-1 1.8-.4 4 1.3 5l2.4 1.4c-.2 1.6-.2 3.2 0 4.7l-.3.2c-2.1-1.7-4.5-3-7-4v-5.3c0-2.4-2-4.4-4.4-4.4h-11.3c-1.3 0-2.6.6-3.4 1.7-1.2-.3-2.4-.5-3.6-.5v-14.6c0-24.3-19.7-44.1-44.1-44.1-24.3 0-44.1 19.7-44.1 44.1v14.8c-8.5.1-15.3 7-15.3 15.4v72.5c0 8.5 6.9 15.4 15.4 15.4h87.9c8.5 0 15.4-6.9 15.4-15.4v-17h3.1c2.4 0 4.4-2 4.4-4.4v-5.3c2.8-1.1 5.4-2.6 7.8-4.5l4.6 2.6c2.1 1.2 4.8.5 6-1.6l5.7-9.8c1.2-2.1.5-4.8-1.6-6l-4.6-2.6c.5-3 .5-6 0-9l.9-.5v.1c0 2 1.7 3.7 3.7 3.7h7.2c2 0 3.7-1.7 3.7-3.7v-2.7c1.5-.6 2.8-1.4 4.1-2.4l2.4 1.4c1.8 1 4 .4 5-1.3l3.6-6.2c1-1.8.4-4-1.3-5l-2.4-1.4c.2-1.6.2-3.2 0-4.7l2.4-1.4c1.6-1.1 2.2-3.3 1.2-5.1zm-154.2-15.9c0-21.6 17.5-39.1 39.1-39.1s39.1 17.5 39.1 39.1v14.8h-10.2v-14.8c0-16-12.9-28.9-28.9-28.9s-29 12.9-29 28.9v14.8h-10.1zm62.9 0v14.8h-47.8v-14.8c0-13.2 10.7-23.9 23.9-23.9s23.9 10.7 23.9 23.9zm-67.8 19.8h85.5c1.7-.1 3.5 0 5.1.4v3.1c-2.8 1.1-5.4 2.6-7.8 4.5l-4.6-2.6c-2.1-1.2-4.8-.5-6 1.6l-1.5 2.6h-81.1c.5-5.4 5-9.6 10.4-9.6zm87.9 93.3h-87.9c-5.4 0-9.9-4.2-10.4-9.6h108.6c-.4 5.5-4.9 9.6-10.3 9.6zm10.4-14.6h-108.7v-64.1h78.3l-1.3 2.2c-1.2 2.1-.5 4.8 1.6 6l4.6 2.6c-.5 3-.5 6 0 9l-4.6 2.6c-2.1 1.2-2.8 3.9-1.6 5.9l5.7 9.8c1.2 2.1 3.9 2.8 6 1.6l4.6-2.6c2.3 1.9 5 3.4 7.8 4.5v5.3c0 2.4 2 4.4 4.4 4.4h3.3zm31.8-37.7-5 8.7-4.4-2.6c-1.6-.9-3.6-.7-5 .4-2.1 1.8-4.5 3.2-7 4.1-1.7.6-2.9 2.3-2.9 4.1v5.1h-10.1v-5.1c0-1.8-1.1-3.5-2.9-4.1-2.6-.9-5-2.3-7-4.1-1.4-1.2-3.4-1.3-5-.4l-4.4 2.6-5-8.7 4.4-2.5c1.6-.9 2.4-2.7 2.1-4.6-.5-2.7-.5-5.4 0-8.1.3-1.8-.5-3.6-2.1-4.6l-4.4-2.5 5-8.7 4.4 2.6c1.6.9 3.6.7 5-.4 2.1-1.8 4.5-3.2 7-4.1 1.7-.6 2.9-2.3 2.9-4.1v-5.1h10.1v5c0 1.8 1.1 3.5 2.9 4.1 1.9.7 3.8 1.7 5.4 2.8-.2.9-.1 1.9.4 2.8l3.6 6.2c1 1.8 3.3 2.4 5 1.3l2.4-1.4h.1c.3.3.7.5 1.1.8 0 0 .1.1.1.1l-1 .6c-1.6.9-2.4 2.7-2.1 4.6.5 2.7.5 5.4 0 8.1-.3 1.8.5 3.6 2.1 4.6zm20.2-38.5c.3 1.6.3 3.2 0 4.8-.3 1.5.4 3.1 1.8 3.8l2 1.2-2.3 3.9-2-1.2c-1.3-.8-3-.6-4.2.4-1.2 1.1-2.7 1.9-4.2 2.4s-2.4 1.9-2.4 3.5v2.3h-4.6v-2.3c0-1.5-1-2.9-2.4-3.5-1.5-.6-2.9-1.4-4.2-2.4-1.2-1-2.9-1.1-4.2-.4l-2 1.2-2.3-3.9 2-1.2c1.3-.8 2.1-2.3 1.8-3.8-.3-1.6-.3-3.2 0-4.8.3-1.5-.4-3.1-1.8-3.8l-2-1.2 2.3-3.9 2 1.2c1.3.8 3 .6 4.2-.4 1.2-1.1 2.7-1.9 4.2-2.4s2.4-1.9 2.4-3.5v-2.3h4.6v2.3c0 1.5 1 2.9 2.4 3.5 1.5.6 2.9 1.4 4.2 2.4 1.2 1 2.9 1.1 4.2.4l2-1.2 2.3 3.9-2 1.2c-1.3.7-2 2.2-1.8 3.8z"/><path d="m170.6 90.3c-8.7 0-15.7 7-15.7 15.7s7 15.7 15.7 15.7 15.7-7 15.7-15.7c0-8.7-7.1-15.7-15.7-15.7zm0 26.3c-5.9 0-10.7-4.8-10.7-10.7s4.8-10.7 10.7-10.7 10.7 4.8 10.7 10.7c0 5.9-4.8 10.7-10.7 10.7z"/></g></g></svg>