<svg id="Layer_1" data-name="Layer 1" xmlns="http://www.w3.org/2000/svg" viewBox="0 0 2732 2732"><defs><style>.cls-1{fill:#fff;}.cls-2{fill:#d2e100;}</style></defs><path class="cls-1" d="M208.55,1645.59c-86.78,0-140.72-46.24-140.72-141.13,0-163,170-293.21,376.43-293.21,184.11,0,270.89,103.41,270.89,215.34,0,60.83-32.84,126.53-91.47,169.12C743.29,1607.87,823,1696.68,823,1850c0,103.42-36.35,294.43-197,294.43-69.18,0-130.16-35.28-130.16-104.63,0-9.73,1.17-30.42,4.69-41.37,22.28,35.28,58.63,47.45,86.77,47.45,79.75,0,97.34-101,97.34-183.71,0-153.3-61-217.78-161.83-217.78-18.77,0-50.43,2.43-76.23,4.87v474.49H320V1343.86l126.65-18.25v275H463c88,0,156-98.55,156-182.5,0-94.89-63.33-163-186.46-163-134.86,0-265,81.51-265,250.62C167.51,1594.49,200.34,1629.77,208.55,1645.59Z"/><path class="cls-1" d="M1006,1272.08v657c0,31.64,2.34,109.5,52.77,109.5,37.53,0,66.84-45,84.43-132.61h43.39c-35.18,203.18-111.4,225.07-163,225.07-107.89,0-134.86-97.33-134.86-176.41v-665.5Z"/><path class="cls-1" d="M1537.17,1515.41v582.77c79.74-26.77,120.78-56,137.2-192.23h43.39c-24.62,172.76-76.22,203.18-180.59,236v77.86c0,152.08-68,208-146.59,208-77.39,0-124.3-53.54-124.3-119.23,0-83.95,77.4-137.49,153.62-170.34v-76.64c-30.49,47.45-72.71,69.34-113.75,69.34-91.47,0-165.35-49.88-165.35-188.57v-427h117.27v413.65c0,79.08,29.32,109.5,70.36,109.5,43.39,0,91.47-46.23,91.47-126.53V1515.41ZM1419.9,2272.16V2187c-77.4,36.5-107.89,71.78-107.89,116.8,0,36.5,21.11,60.83,56.29,60.83C1410.52,2364.62,1419.9,2329.34,1419.9,2272.16Z"/><path class="cls-1" d="M1674.36,1289.11l117.27-17v288.34c25.8-28,61-47.45,111.4-47.45,83.26,0,195.84,52.32,195.84,262.8,0,184.93-85.6,355.25-256.82,355.25-97.33,0-168.86-56-168.86-225.07Zm197,287.13c-31.66,0-58.63,17-79.74,41.36v320c0,74.22,21.11,109.5,69.19,109.5,89.12,0,133.68-116.8,133.68-243.33C1994.5,1678.43,1949.94,1576.24,1871.37,1576.24Z"/><path class="cls-1" d="M2280.63,1515.41v92.46c45.73-88.81,100.85-98.55,140.72-98.55,141.89,0,160.65,124.1,160.65,220.21,0,53.53-5.86,137.48-5.86,208,0,31.63,1.17,101,59.81,101,10.55,0,30.49-2.43,37.52-9.73v8.52c0,86.38-49.25,93.67-78.57,93.67-96.15,0-137.2-86.38-137.2-186.14,0-30.42,3.52-178.85,3.52-211.69,0-104.64-35.18-131.4-75-131.4-48.08,0-83.26,37.71-105.54,132.61v389.33H2163.36V1515.41Z"/><circle class="cls-1" cx="1310.69" cy="738" r="494.95"/><path class="cls-2" d="M1118.87,718.67c-60.4.68-98.3-30.54-99-95.47-1.26-111.56,116.1-202,259.77-203.58,128.16-1.44,189.35,68.64,190.22,145.23.47,41.63-21.89,86.85-62.37,116.44,83.35,7.39,139.54,67.54,140.72,172.44.79,70.76-23,201.75-134.87,203-48.16.54-90.88-23.13-91.41-70.58-.08-6.66.58-20.82,2.94-28.34,15.78,24,41.18,32,60.77,31.79,55.51-.62,67-69.87,66.34-126.47-1.18-104.9-44.12-148.55-114.32-147.76-13.06.15-35.08,2.06-53,3.93l3.65,324.68-88.16,1-6-533.65,88-13.47L1284.23,686l11.43-.13c61.22-.69,107.81-68.66,107.17-126.1-.74-64.94-45.34-111.06-131-110.1-93.87,1.06-183.85,57.85-182.55,173.57C1089.91,684,1113,707.91,1118.87,718.67Z"/></svg>