<svg id="Layer_1" data-name="Layer 1" xmlns="http://www.w3.org/2000/svg" viewBox="0 0 2732 2732"><defs><style>.cls-1{fill:#f02322;}.cls-2{fill:#ff7600;}.cls-3{fill:#f9ac23;}</style></defs><path class="cls-1" d="M1372.13,1944.47a777.36,777.36,0,0,1-521.67,200.09c-430.75,0-779.88-349.14-779.88-779.88S419.71,584.8,850.46,584.8a777.36,777.36,0,0,1,521.67,200.09c-158.77,142.77-258.41,349.53-258.41,579.79S1213.36,1801.7,1372.13,1944.47Z"/><path class="cls-2" d="M1630.33,1364.68c0,230-99.63,436.82-258.2,579.79-158.77-142.77-258.41-349.53-258.41-579.79s99.64-437,258.41-579.79C1530.7,927.86,1630.33,1134.63,1630.33,1364.68Z"/><path class="cls-3" d="M2673.47,1364.68c0,430.74-349.13,779.88-779.87,779.88-200.69,0-383.36-75.74-521.47-200.09,158.57-143,258.2-349.74,258.2-579.79s-99.63-436.82-258.2-579.79C1510.24,660.54,1692.91,584.8,1893.6,584.8,2324.34,584.8,2673.47,933.94,2673.47,1364.68Z"/></svg>