<svg id="Layer_1" data-name="Layer 1" xmlns="http://www.w3.org/2000/svg" viewBox="0 0 983.16 1024"><path d="M988.35,590l-37.77-58.05a36.51,36.51,0,0,1,0-39.83l37.77-58A93.92,93.92,0,0,0,943.19,295.1l-64.67-24.76a36.57,36.57,0,0,1-23.41-32.24L851.53,169A93.93,93.93,0,0,0,733.34,83.07l-66.87,18a36.58,36.58,0,0,1-37.89-12.3L585.05,34.88a93.95,93.95,0,0,0-146.11,0L395.42,88.75a36.56,36.56,0,0,1-37.89,12.3l-66.87-18A93.91,93.91,0,0,0,172.46,169l-3.57,69.15a36.58,36.58,0,0,1-23.41,32.24L80.81,295.1A93.92,93.92,0,0,0,35.65,434l37.77,58a36.55,36.55,0,0,1,0,39.83L35.67,590a93.93,93.93,0,0,0,45.14,139l64.67,24.76a36.49,36.49,0,0,1,23.41,32.23l3.57,69.16a93.93,93.93,0,0,0,118.2,85.86l66.87-18a36.53,36.53,0,0,1,37.89,12.32L439,989.12a93.92,93.92,0,0,0,146.09,0l43.53-53.85A36.56,36.56,0,0,1,666.47,923l66.89,18a93.91,93.91,0,0,0,118.19-85.86l3.56-69.16a36.51,36.51,0,0,1,23.43-32.23l64.67-24.76a94,94,0,0,0,45.14-139Zm-44,62.53a36.49,36.49,0,0,1-21.69,22.82L858,700.07a94,94,0,0,0-60.21,82.87l-3.58,69.16a36.53,36.53,0,0,1-46,33.4l-66.87-18a94,94,0,0,0-97.43,31.65L540.41,953a36.51,36.51,0,0,1-56.81,0l-43.55-53.86a93.87,93.87,0,0,0-97.43-31.65l-66.87,18a36.54,36.54,0,0,1-46-33.4l-3.55-69.16A94,94,0,0,0,166,700.07l-64.67-24.78a36.51,36.51,0,0,1-17.55-54l37.77-58a94,94,0,0,0,0-102.44l-37.77-58a36.53,36.53,0,0,1,17.55-54L166,323.94a94,94,0,0,0,60.23-82.89l3.55-69.15a36.53,36.53,0,0,1,46-33.39l66.87,18a94,94,0,0,0,97.43-31.67L483.6,71a36.5,36.5,0,0,1,56.81,0l43.53,53.85a94,94,0,0,0,97.43,31.67l66.89-18a36.51,36.51,0,0,1,46,33.39l3.58,69.15A94,94,0,0,0,858,323.94l64.67,24.76a36.52,36.52,0,0,1,17.55,54l-37.75,58a93.92,93.92,0,0,0,0,102.44l37.75,58A36.41,36.41,0,0,1,944.36,652.49Z" transform="translate(-20.42)"/><path d="M685.45,363.87a28.56,28.56,0,0,1-8.4,20.3l-315,315a28.71,28.71,0,0,1-40.59-40.6l315-315a28.7,28.7,0,0,1,49,20.3Z" transform="translate(-20.42)"/><path d="M437.93,397.62a62.5,62.5,0,1,1-18.29-44.13A62.51,62.51,0,0,1,437.93,397.62Z" transform="translate(-20.42)"/><path d="M685.45,645.14A62.51,62.51,0,1,1,667.13,601,62.52,62.52,0,0,1,685.45,645.14Z" transform="translate(-20.42)"/></svg>