<svg width="392" height="721" xmlns="http://www.w3.org/2000/svg" xmlns:xlink="http://www.w3.org/1999/xlink" overflow="hidden"><defs><clipPath id="clip0"><rect x="705" y="0" width="392" height="721"/></clipPath></defs><g clip-path="url(#clip0)" transform="translate(-705 0)"><path d="M706.5 525.5C706.5 417.804 793.804 330.5 901.5 330.5 1009.2 330.5 1096.5 417.804 1096.5 525.5 1096.5 633.196 1009.2 720.5 901.5 720.5 793.804 720.5 706.5 633.196 706.5 525.5Z" stroke="#FFFFFF" stroke-width="0.513176" stroke-miterlimit="8" fill="none" fill-rule="evenodd"/><path d="M746 525C746 438.844 815.844 369 902 369 988.156 369 1058 438.844 1058 525 1058 611.156 988.156 681 902 681 815.844 681 746 611.156 746 525Z" fill="#FFFFFF" fill-rule="evenodd"/><path d="M874.686 466C870.441 466 867 466 867 466L867-9.15527e-05C867-9.15527e-05 870.441-9.15527e-05 874.686-9.15527e-05L928.314-9.15527e-05C932.559-9.15527e-05 936-9.15527e-05 936-9.15527e-05L936 466C936 466 932.559 466 928.314 466Z" fill="#FFFFFF" fill-rule="evenodd"/></g></svg>