<svg id="Layer_1" enable-background="new 0 0 512.019 512.019" height="512" viewBox="0 0 512.019 512.019" width="512" xmlns="http://www.w3.org/2000/svg"><g><path d="m211.018 399.546h90.004v112.473h-90.004z" fill="#8b8992"/><path d="m256.02 399.546h45.002v112.473h-45.002z" fill="#78777f"/><path d="m123.665 15h264.689v221.514h-264.689z" fill="#bee75e"/><path d="m256.02 15h132.333v221.514h-132.333z" fill="#60dd4e"/><path d="m123.665 236.514h264.689v178.031h-264.689z" fill="#78777f"/><path d="m256.02 236.514h132.333v178.031h-132.333z" fill="#57555c"/><path d="m108.665 429.546h294.689v-429.546h-294.689zm264.689-30h-234.689v-148.031h234.689zm-234.689-178.031v-191.515h234.689v191.515z" fill="#57555c"/><path d="m403.354 0h-147.334v30h117.334v191.515h-117.334v30h117.334v148.031h-117.334v30h147.334z" fill="#3c3a41"/><g><path d="m168.998 60.004h174.022v30h-174.022z" fill="#f9f9f9"/></g><g><path d="m208.107 378.149c-14.055-14.055-21.796-32.742-21.796-52.619s7.741-38.564 21.796-52.619l21.213 21.213c-8.389 8.389-13.009 19.543-13.009 31.406s4.62 23.018 13.009 31.406z" fill="#8b8992"/></g><g><path d="m241.009 311.331h30v28.398h-30z" fill="#8b8992"/></g><g><path d="m303.911 378.149-21.213-21.213c8.389-8.389 13.008-19.542 13.008-31.406s-4.62-23.018-13.008-31.406l21.213-21.213c14.055 14.055 21.795 32.742 21.795 52.619s-7.739 38.565-21.795 52.619z" fill="#8b8992"/></g><g><path d="m245.824 195.078-35.295-38.564 22.129-20.254 13.166 14.385 33.558-36.666 22.13 20.254z" fill="#f9f9f9"/></g><g><path d="m303.911 378.149-21.213-21.213c8.389-8.389 13.008-19.542 13.008-31.406s-4.62-23.018-13.008-31.406l21.213-21.213c14.055 14.055 21.795 32.742 21.795 52.619s-7.739 38.565-21.795 52.619z" fill="#78777f"/></g><path d="m256.02 311.331h14.989v28.398h-14.989z" fill="#78777f"/><g fill="#f4f1f1"><path d="m301.512 134.233-22.13-20.254-23.362 25.526v44.433z"/><path d="m256.02 60.004h87v30h-87z"/></g></g></svg>