<svg id="bold" xmlns="http://www.w3.org/2000/svg" viewBox="0 0 1024 1027.97"><path d="M667.75,336.32a90.39,90.39,0,0,0-62.58-25.14H561.66V211.74C561.66,93.89,465.78-2,347.93-2S134.21,93.89,134.21,211.74v99.44H90.7A90.79,90.79,0,0,0,0,401.87V782.13a90.8,90.8,0,0,0,90.7,90.7H396A395.31,395.31,0,0,1,382.71,771,389.71,389.71,0,0,1,695,388.85,90.59,90.59,0,0,0,667.75,336.32ZM492.1,311.18H203.76V211.74c0-79.49,64.68-144.18,144.17-144.18S492.1,132.25,492.1,211.74Z" transform="translate(0 1.98)" fill="#fff"/><path d="M743.18,464.32c-154.86,0-280.84,126-280.84,280.84S588.32,1026,743.18,1026,1024,900,1024,745.16,898,464.32,743.18,464.32Zm153,216.22-156.58,179a54.82,54.82,0,0,1-39.33,18.65h-1.8a54.31,54.31,0,0,1-38.67-16l-89.48-89.48a54.69,54.69,0,0,1,77.34-77.34l48.13,48.12,118.06-135a54.72,54.72,0,0,1,82.33,72.09Z" transform="translate(0 1.98)" fill="#fff"/></svg>