<svg id="Layer_1" data-name="Layer 1" xmlns="http://www.w3.org/2000/svg" viewBox="0 0 2732 2732"><defs><style>.cls-1{fill:#006baf;}.cls-2{fill:#fbb323;}</style></defs><path class="cls-1" d="M2673.47,1773.44c-62.75,0-123.25.31-183.73-.66-4.22-.06-10.63-9-12-14.74-7.43-30.76-13.09-62-20.66-92.67-1.31-5.3-8.79-12.89-13.53-13q-125.42-2.2-250.86-2.1c-4.7,0-11.72,6.65-13.7,11.74-12.51,32.19-24,64.79-35.63,97.31-3.07,8.57-6.48,14.81-17.88,14.7-65.78-.65-131.57-.52-197.35-.71-1.66,0-3.31-.71-6.58-1.45,1.26-4.42,2-8.71,3.67-12.63Q2077.65,1395,2230,1030.72c20-48.07,55.09-70.32,106-70.37,47.9-.05,95.84,1.18,143.67-.64,20.43-.78,26,7.25,29.62,25.21,21.22,104.94,43.51,209.66,65.51,314.45q47.74,227.33,95.54,454.64C2671.49,1759.57,2672.16,1765.24,2673.47,1773.44Zm-315.17-587-5-.46-109.46,298.1h176.24Z"/><path class="cls-1" d="M1029.15,960.28c-1.94,6.29-3.05,11-4.81,15.31Q865.75,1363.73,707.53,1752c-6.24,15.36-14,20.58-30.34,20.35-58.87-.88-117.8-.92-176.63.28-17.57.37-25-4.76-29.5-22.11C429,1588.85,386,1427.4,343.32,1265.85,326,1200.17,309,1134.36,291.19,1068.78c-1-3.61-4.07-7.12-7.54-9.94a1850.31,1850.31,0,0,1,257.57,167.33s0,0,.09,0q14.57,73.26,29.55,146.48c8.1,39.45,16.7,78.8,25.21,118.16a40.26,40.26,0,0,0,8.51,18.18c7.77-20.07,15.82-40,23.31-60.17,57.58-155,115.39-310,172.09-465.36,6.66-18.32,15.13-24.15,34.46-23.73C898.45,961.11,962.5,960.28,1029.15,960.28Z"/><path class="cls-1" d="M1359,1564.84c38.39,13.73,74,29.1,111,39.12,57.94,15.66,117.25,20.26,176,3.52a118.23,118.23,0,0,0,43.48-23.65c31.61-27.35,31.39-72.22-1.92-97.54-26.4-20.06-55.75-36.76-85.28-52.1-49.4-25.64-97.6-52.57-135.32-94.5-78.52-87.28-54.14-212.09,13.12-285,54-58.56,123.57-87.14,200.09-101.31,88.63-16.4,175.69-8.82,261.5,18,15.19,4.75,20.61,10.3,17.17,27.84-9.07,46.31-15.18,93.2-22.58,139.84-.61,3.84-2.11,7.54-3.4,12-2.92-.63-5.26-.63-7.11-1.59-49.25-25.6-102.54-34.78-157.11-36.36-35.26-1-70.48,2.32-101.71,21.9-39.08,24.5-44.13,66-7.29,93.53,32.51,24.29,69.05,43.53,105,62.85,47.57,25.6,94.1,52.46,126.77,96.73,51.92,70.37,49.82,146.48,17.34,223.06-29.87,70.4-86.62,113.49-156.14,141.09-79.6,31.61-162.55,36.38-246.85,29.34-53.66-4.49-106.2-14.11-157.11-32.21-13.36-4.75-18.49-9.79-15.43-25.92C1343.15,1671.06,1350.55,1618.05,1359,1564.84Z"/><path class="cls-1" d="M1327.18,960.84c-6.56,42.06-12.6,81.84-19,121.57q-36.06,224.28-72.35,448.5c-12.24,75.58-24.9,151.09-37.1,226.67-1.43,8.87-3.27,15.24-14.35,15.18-62.34-.36-124.68-.3-187-.5-2.7,0-5.4-1.17-9.6-2.15,4.81-30.57,9.42-60.57,14.28-90.54q33.87-208.89,67.84-417.79c15.37-94.89,30.81-189.77,45.56-284.75,2.11-13.58,7.29-17.8,21-17.63,57.71.71,115.44.2,173.17.22C1314.72,959.63,1319.8,960.31,1327.18,960.84Z"/><path class="cls-2" d="M541.31,1226.21s29.6,146.52,29.55,146.48c-103.1-205.94-219.13-277.32-287.21-313.85a53.16,53.16,0,0,0-4.48-3.15c-33.26-20.39-68.36-36.4-104.53-49.9a5.88,5.88,0,0,0-.78-.33,4.5,4.5,0,0,0-.93-.37,1.19,1.19,0,0,1-.23-.09c-24-9-48.51-16.88-73.21-24.32-9.3-2.78-18.55-5.83-27.84-8.79-.33-1.9-.7-3.79-1.07-5.69,5.23-1.62,10.41-4.67,15.64-4.67,109.7-.23,219.45-1.85,329.06.69,50.83,1.16,80.38,24.79,90.28,82C514,1093,524.29,1141.35,534,1189.86Q537.62,1208,541.31,1226.21Z"/></svg>