<svg xmlns="http://www.w3.org/2000/svg" viewBox="0 0 2697.38 2697.38"><defs><style>.cls-1{fill:#6d6f72;}</style></defs><g id="Layer_2" data-name="Layer 2"><g id="Layer_1-2" data-name="Layer 1"><path class="cls-1" d="M1348.69,0C603.89,0,0,603.82,0,1348.69S603.89,2697.38,1348.69,2697.38s1348.69-603.82,1348.69-1348.69S2093.56,0,1348.69,0Zm272.64,2220c-131.28.45-247.16-65-247.54-194.34-.07-18.11,2-56.73,8.64-77.1,42.46,65.61,111.52,88.08,164.88,87.93,151.27-.45,184-188.93,183.51-343.13-.83-285.87-116.93-405.73-308.18-405.13-35.62.08-95.67,4.81-144.59,9.47l2.78,884.8-240.25.75L1036,729.09l240.17-34.79,1.58,512.74,31.19-.08c166.83-.53,295.26-184.71,294.73-341.25-.53-177-121.06-303.6-354.63-302.85-255.8.75-502.21,153.53-501.24,468.85.53,165.63,63.05,231.24,78.68,260.69-164.57.53-267.23-85.36-267.75-262.34-1-304,320.81-547.76,712.33-549C1620.28,480,1785.45,672.28,1786.13,881c.38,113.4-61.55,236.12-172.47,315.85,226.95,21.94,378.68,187.12,379.58,473C1993.84,1862.71,1926.06,2219.06,1621.33,2220Z"/></g></g></svg>