<svg viewBox="0 0 2732 2732" xmlns="http://www.w3.org/2000/svg" xmlns:xlink="http://www.w3.org/1999/xlink" id="Layer_2" overflow="hidden"><defs></defs><path d="M1785.71 376.2C1387.81-21.7 740.2-21.7 342.3 376.2-55.6 774.1-55.52 1421.72 342.3 1819.7 696.64 2173.96 1248.5 2211.91 1646.15 1935.29 1654.64 1976.25 1674.9 2013.85 1704.46 2043.45L2283.93 2622.92C2368.37 2707.19 2504.83 2707.19 2588.84 2622.92 2673.2 2538.56 2673.2 2402.11 2588.84 2318.01L2009.37 1738.36C1979.74 1708.92 1942.19 1688.73 1901.29 1680.23 2178.09 1282.5 2140.14 730.72 1785.71 376.2ZM1602.71 1636.75C1305.64 1933.82 822.18 1933.82 525.2 1636.75 228.22 1339.68 228.3 856.31 525.2 559.24 822.1 262.17 1305.64 262.24 1602.71 559.24 1899.78 856.24 1899.83 1339.69 1602.76 1636.75Z" stroke-width="0.999901" fill="#6D6F72"/></svg>