<svg id="Layer_1" data-name="Layer 1" xmlns="http://www.w3.org/2000/svg" viewBox="0 0 2732 2732"><path d="M2011.81,877.78c0,117-94.84,211.91-211.91,211.91S1588,994.81,1588,877.78c0-32-15.64-53.41-28.75-65.77-21.06-19.88-49.87-30.83-81.06-30.8l-183.62,0c-47.61,0-91.53,17.33-123.69,48.78-22.51,22.11-48.57,59.7-48.54,117.65v47.32c0,97.65,78.85,180.11,172.23,180.14l194.17,0c159.11,0,308.51,60.56,420.77,170.48C2023.29,1457,2086,1606.59,2086,1766.73v22.08c0,162-63.92,306.73-168.92,411.73-89.17,89.22-208,149.6-342.51,167.81l-2.2,123.31a212,212,0,0,1-215.68,208.07c-117-2.08-210.19-98.68-208.08-215.69l2-110.36c-131.65-5.27-254.48-56.72-348-146.32-101.9-97.68-158.06-229.92-158.06-372.34,0-117,94.9-211.91,211.94-211.94S1068.33,1738,1068.36,1855c0,26.56,9.22,48.87,27.44,66.32,19.56,18.74,47,29.08,77.3,29.05h315.65c98.86,0,173.38-69.49,173.41-161.58l0-22.11c0-45.24-17.45-87.25-49.22-118.38-32.56-31.86-76.66-49.43-124.16-49.43l-194.22,0c-328.69,0-596-271-596.08-604l0-47.35c0-157.94,60.78-305.4,171.32-415.94l4.63-4.63a591.87,591.87,0,0,1,276.24-152.67l-2.11-130.83C1146.69,126.44,1240,30.08,1357.05,28.17s213.4,91.48,215.3,208.52l2.08,129.16C1677.8,384,1773.31,431.32,1850,503.65,1954.36,602.06,2011.84,734.91,2011.81,877.78Z"/></svg>