<svg xmlns="http://www.w3.org/2000/svg" viewBox="0 0 2716.72 2650.09"><defs><style>.cls-1{fill:#6d6f72;}</style></defs><g id="Layer_2" data-name="Layer 2"><g id="Layer_1-2" data-name="Layer 1"><path class="cls-1" d="M2524.19,214Q2331.64,0,1992.05,0q-94,0-191.78,37.08a739.38,739.38,0,0,0-181.9,100.08q-84.18,63-144.8,118.18a1482.37,1482.37,0,0,0-115.21,117.32,1484.11,1484.11,0,0,0-115.21-117.32q-60.66-55.18-144.79-118.18A740.83,740.83,0,0,0,916.43,37.08Q818.66,0,724.65,0,385.05,0,192.53,214T0,807.44Q0,923,35.64,1045.52t81.11,208.76a1545.69,1545.69,0,0,0,103.08,168.2q57.61,82,84.15,113t41.68,44.88l946,1038.64q27.28,31,66.7,31.09t66.71-31.09l944.49-1035.23q347.18-395,347.16-776.36Q2716.74,427.82,2524.19,214ZM2237.66,1421.62l-879.29,964.44-880.8-966.18q-283.5-322.56-283.49-612.47,0-139.73,32.58-246.7t83.39-170q50.79-63,123.55-102.66t142.52-53.48q69.72-13.78,148.56-13.78t169.8,44A758.51,758.51,0,0,1,1062,375.24q76.57,66.45,131.16,124.22t90.95,106.11q27.27,38,74.28,38t74.29-38q36.38-48.32,91-106.11t131.13-124.22a758.3,758.3,0,0,1,167.54-110.42q90.93-44,169.8-44t148.56,13.78q69.75,13.78,142.52,53.48t123.55,102.66q50.78,63,83.39,170t32.56,246.7Q2522.65,1097.27,2237.66,1421.62Z"/></g></g></svg>