<svg viewBox="0 0 2697.38 2697.38" xmlns="http://www.w3.org/2000/svg" xmlns:xlink="http://www.w3.org/1999/xlink" overflow="hidden"><defs></defs><g id="Layer_2"><g id="Layer_1-2"><path d="M1348.69 0C603.89 0 0 603.82 0 1348.69 0 2093.56 603.89 2697.38 1348.69 2697.38 2093.49 2697.38 2697.38 2093.56 2697.38 1348.69 2697.38 603.82 2093.56 0 1348.69 0ZM1621.33 2220C1490.05 2220.45 1374.17 2155 1373.79 2025.66 1373.72 2007.55 1375.79 1968.93 1382.43 1948.56 1424.89 2014.17 1493.95 2036.64 1547.31 2036.49 1698.58 2036.04 1731.31 1847.56 1730.82 1693.36 1729.99 1407.49 1613.89 1287.63 1422.64 1288.23 1387.02 1288.31 1326.97 1293.04 1278.05 1297.7L1280.83 2182.5 1040.58 2183.25 1036 729.09 1276.17 694.3 1277.75 1207.04 1308.94 1206.96C1475.77 1206.43 1604.2 1022.25 1603.67 865.71 1603.14 688.71 1482.61 562.11 1249.04 562.86 993.24 563.61 746.83 716.39 747.8 1031.71 748.33 1197.34 810.85 1262.95 826.48 1292.4 661.91 1292.93 559.25 1207.04 558.73 1030.06 557.73 726.06 879.54 482.3 1271.06 481.06 1620.28 480 1785.45 672.28 1786.13 881 1786.51 994.4 1724.58 1117.12 1613.66 1196.85 1840.61 1218.79 1992.34 1383.97 1993.24 1669.85 1993.84 1862.71 1926.06 2219.06 1621.33 2220Z" fill="#6D6F72"/></g></g></svg>