<svg xmlns="http://www.w3.org/2000/svg" viewBox="0 0 2683.12 2683.12"><defs><style>.cls-1{fill:#6d6f72;}</style></defs><g id="Layer_2" data-name="Layer 2"><g id="Layer_1-2" data-name="Layer 1"><path class="cls-1" d="M1341.56,0C600.12,0,0,600,0,1341.56A1338.48,1338.48,0,0,0,177.91,2009.4L5.06,2546.18A104.81,104.81,0,0,0,137,2678.07l536.78-172.86a1338.45,1338.45,0,0,0,667.83,177.91c741.45,0,1341.56-600,1341.56-1341.56S2083.11,0,1341.56,0Zm0,2473.51A1128.64,1128.64,0,0,1,742.41,2302a104.89,104.89,0,0,0-87.7-10.89L267.22,2415.9,392,2028.41a104.85,104.85,0,0,0-10.91-87.69,1128.83,1128.83,0,0,1-171.48-599.16c0-624.15,507.79-1131.94,1131.94-1131.94s1132,507.79,1132,1131.94S1965.71,2473.51,1341.56,2473.51Zm131-1132a131,131,0,1,1-131-131A131,131,0,0,1,1472.57,1341.56Zm524.05,0a131,131,0,1,1-131-131A131,131,0,0,1,1996.62,1341.56Zm-1048.09,0a131,131,0,1,1-131-131A131,131,0,0,1,948.53,1341.56Z"/></g></g></svg>