<svg xmlns="http://www.w3.org/2000/svg" viewBox="0 0 2606.83 2716.77"><defs><style>.cls-1{fill:#6d6f72;}</style></defs><g id="Layer_2" data-name="Layer 2"><g id="Layer_1-2" data-name="Layer 1"><path class="cls-1" d="M2481.14,1393.57a79.61,79.61,0,0,1,0-70.37l101.33-207.29c56.41-115.41,11.71-253-101.77-313.18L2276.9,694.59a79.6,79.6,0,0,1-41.37-56.93l-39.86-227.25c-22.2-126.53-139.24-211.56-266.41-193.57l-228.44,32.32a79.64,79.64,0,0,1-66.93-21.75L1468.07,67c-92.33-89.32-237-89.32-329.31,0L972.94,227.43A79.69,79.69,0,0,1,906,249.18L677.57,216.86c-127.22-18-244.22,67-266.41,193.56L371.3,637.67a79.65,79.65,0,0,1-41.37,56.93L126.13,802.74C12.65,863-32,1000.52,24.37,1115.93l101.32,207.28a79.61,79.61,0,0,1,0,70.37L24.36,1600.86c-56.41,115.42-11.72,253,101.76,313.19l203.81,108.14a79.63,79.63,0,0,1,41.37,56.92l39.86,227.26c20.2,115.19,119,196,232.48,196a242.77,242.77,0,0,0,33.93-2.4L906,2467.61a79.62,79.62,0,0,1,66.92,21.75l165.82,160.42a235.84,235.84,0,0,0,329.3,0l165.83-160.42a79.71,79.71,0,0,1,66.93-21.75l228.44,32.32c127.23,18,244.21-67,266.41-193.56l39.86-227.25a79.63,79.63,0,0,1,41.37-56.93l203.8-108.14c113.48-60.21,158.18-197.78,101.77-313.19Zm-73.88,382.06-203.81,108.13A235.36,235.36,0,0,0,2081.2,2052l-39.86,227.25a79.8,79.8,0,0,1-90.13,65.49l-228.45-32.32a235.25,235.25,0,0,0-197.82,64.28l-165.82,160.4a79.8,79.8,0,0,1-111.42,0l-165.82-160.41a235.07,235.07,0,0,0-164.1-66.66,240.24,240.24,0,0,0-33.72,2.39l-228.44,32.31a79.82,79.82,0,0,1-90.14-65.49L525.62,2052a235.26,235.26,0,0,0-122.26-168.27L199.55,1775.62a79.8,79.8,0,0,1-34.43-106l101.33-207.28a235.33,235.33,0,0,0,0-208L165.12,1047.1a79.79,79.79,0,0,1,34.43-105.95L403.36,833A235.29,235.29,0,0,0,525.61,664.73l39.86-227.25A79.79,79.79,0,0,1,655.61,372l228.44,32.31A235.32,235.32,0,0,0,1081.87,340L1247.7,179.62a79.81,79.81,0,0,1,111.41,0L1524.93,340a235.28,235.28,0,0,0,197.82,64.27L1951.2,372a79.79,79.79,0,0,1,90.13,65.48l39.86,227.26A235.28,235.28,0,0,0,2203.45,833l203.81,108.14a79.79,79.79,0,0,1,34.43,105.95l-101.33,207.28a235.33,235.33,0,0,0,0,208l101.33,207.28A79.8,79.8,0,0,1,2407.26,1775.63Z"/><path class="cls-1" d="M1875.86,785.93a78.36,78.36,0,0,0-110.8,0L731,1820a78.34,78.34,0,1,0,110.79,110.8L1875.85,896.73A78.33,78.33,0,0,0,1875.86,785.93Z"/><path class="cls-1" d="M990,653.28c-158.4,0-287.27,128.87-287.27,287.27S831.63,1227.82,990,1227.82,1277.3,1099,1277.3,940.55,1148.43,653.28,990,653.28Zm0,417.84A130.72,130.72,0,0,1,859.45,940.54C859.45,868.54,918,810,990,810s130.58,58.57,130.58,130.57S1062,1071.12,990,1071.12Z"/><path class="cls-1" d="M1616.79,1489c-158.4,0-287.27,128.87-287.27,287.27s128.87,287.27,287.27,287.27,287.27-128.87,287.27-287.27S1775.19,1489,1616.79,1489Zm0,417.84c-72,0-130.58-58.57-130.58-130.57s58.57-130.57,130.58-130.57a130.57,130.57,0,0,1,0,261.14Z"/></g></g></svg>