<svg viewBox="0 0 2732 2732" xmlns="http://www.w3.org/2000/svg" xmlns:xlink="http://www.w3.org/1999/xlink" id="Layer_1" overflow="hidden"><path d="M2609.52 1473.61C2618.21 1449.12 2622.65 1423.33 2622.64 1397.35 2622.64 1318.35 2582.43 1248.66 2521.42 1207.53L2521.42 654.64C2521.42 528.5 2418.79 425.87 2292.65 425.87L451.41 425.87C325.27 425.87 222.64 528.5 222.64 654.64L222.64 1207.53C161.64 1248.66 121.42 1318.39 121.42 1397.35 121.408 1423.33 125.846 1449.13 134.54 1473.61L70.54 1473.61 70.54 2449.69 223.1 2449.69 223.1 2216.31 2521 2216.31 2521 2449.69 2673.51 2449.69 2673.51 1473.61ZM451.41 578.38 2292.65 578.38C2334.75 578.43 2368.86 612.543 2368.91 654.64L2368.91 1168.58 2216.61 1168.58 2216.61 1092.32C2216.61 966.18 2113.98 863.55 1987.84 863.55L1524.54 863.55C1468.22 863.508 1413.87 884.331 1372 922 1330.13 884.339 1275.8 863.52 1219.49 863.56L756.22 863.56C630.07 863.56 527.45 966.19 527.45 1092.33L527.45 1168.59 375.15 1168.59 375.15 654.64C375.2 612.543 409.313 578.43 451.41 578.38ZM1295.77 1168.58 680 1168.58 680 1092.32C680.05 1050.22 714.165 1016.11 756.26 1016.07L1219.56 1016.07C1261.65 1016.12 1295.76 1050.23 1295.81 1092.32ZM1448.29 1092.32C1448.34 1050.23 1482.45 1016.12 1524.54 1016.07L1987.84 1016.07C2029.94 1016.11 2064.05 1050.22 2064.1 1092.32L2064.1 1168.58 1448.29 1168.58ZM273.93 1397.32C273.98 1355.22 308.093 1321.11 350.19 1321.06L2393.87 1321.06C2435.99 1321.06 2470.13 1355.2 2470.13 1397.32 2470.13 1439.44 2435.99 1473.58 2393.87 1473.58L350.19 1473.58C308.105 1473.53 273.996 1439.43 273.93 1397.35ZM223.1 1626.12 2521 1626.12 2521 2063.8 223.1 2063.8Z"/></svg>