<svg id="Layer_2" data-name="Layer 2" xmlns="http://www.w3.org/2000/svg" viewBox="0 0 2732 2732"><defs><style>.cls-1{fill:#fff;}</style></defs><path class="cls-1" d="M2680.9,878.6c0,244.58-112.26,495.67-332.79,747.26L1459,2600.15c-21.55,24.57-49.12,37.59-81.19,37.59s-59.65-13-81.7-38.08L406.54,1622.85c-9-7.51-22.55-22-40.09-42.59-17-20.55-44.11-56.64-80.19-108.25a1387.57,1387.57,0,0,1-98.73-160.89c-29.57-55.63-55.64-123.29-78.19-201.47-23-78.68-34.58-156.37-34.58-230.54,0-243.58,63.15-437,187.44-575.36C387.5,164.42,561.91,94.25,781.42,94.25c61.65,0,125.3,12,189.45,36.59,63.15,23.56,122.79,56.63,177.42,97.23,52.63,39.59,99.23,77.69,137.82,112.77,31.58,28.57,62.15,59.64,91.72,91.22,29.06-31.58,59.64-62.16,91.22-91.22,39.08-35.59,85.7-73.18,138.32-112.77a702.51,702.51,0,0,1,177.42-97.23c63.65-24.55,127.3-36.59,188.94-36.59,219.53,0,394.44,70.17,519.73,209.5q93.23,103.74,140.32,248.08C2665.36,648.06,2680.9,757.31,2680.9,878.6Z"/></svg>