<svg viewBox="0 0 2732 2732" xmlns="http://www.w3.org/2000/svg" xmlns:xlink="http://www.w3.org/1999/xlink" id="Layer_1" overflow="hidden"><defs></defs><path d="M2670.41 1954.33 2503.85 1538C2517.81 1537.06 2530.44 1529.39 2537.71 1517.44L2667.3 1301.44C2679.58 1280.98 2672.94 1254.45 2652.48 1242.17 2652.22 1242.01 2651.96 1241.86 2651.7 1241.71L2500.7 1155.45 2500.7 804.14C2500.7 709.07 2438.54 629.03 2353.01 600.31 2416.9 544.8 2457.5 463.25 2457.5 372.2 2457.5 205.47 2321.87 69.84 2155.14 69.84 1988.41 69.84 1852.78 205.47 1852.78 372.2 1852.78 463.25 1893.38 544.8 1957.27 600.31 1871.74 629.03 1809.58 709.07 1809.58 804.14L1809.58 974.63 1559.58 1295.96C1546.18 1313.15 1547.7 1337.62 1563.12 1353.02L1587.36 1377.25 1270.96 1693.69 996 1418.8C947 1369.8 861.66 1369.8 812.72 1418.8L140.72 2090.73 64.4 2167.1C22.2608 2209.31 22.3215 2277.7 64.5355 2319.84 106.695 2361.92 174.968 2361.92 217.13 2319.84L263 2274 446.28 2457.27 400.45 2503.1C358.967 2545.96 360.082 2614.33 402.941 2655.81 444.82 2696.35 511.308 2696.34 553.18 2655.8L629.55 2579.43 1301.55 1907.49C1341.29 1867.71 1349.28 1808.49 1326.43 1760.42L1648.49 1438.36 1735.95 1525.83C1744.05 1533.9 1755.02 1538.43 1766.45 1538.44 1767.36 1538.44 1768.26 1538.44 1769.17 1538.35 1781.55 1537.56 1793 1531.51 1800.62 1521.72L1832.15 1481.03C1849.56 1540.74 1876.91 1597.1 1913.05 1647.72L1812.58 2082.56 1557.78 2464.75C1545.33 2483.39 1549.24 2508.46 1566.78 2522.41L1782.78 2695.19C1801.32 2710.08 1828.42 2707.12 1843.32 2688.58 1843.76 2688.03 1844.19 2687.47 1844.6 2686.9L2190 2211.77C2192.87 2207.83 2195.05 2203.44 2196.44 2198.77L2255.53 2002.32 2327.88 2074.63 2327.88 2618.27C2327.89 2642.12 2347.22 2661.46 2371.07 2661.47L2630.24 2661.47C2654.09 2661.46 2673.42 2642.12 2673.43 2618.27L2673.43 1970.4C2673.43 1964.9 2672.39 1959.45 2670.37 1954.33ZM156.06 2258.72C147.689 2267.23 134.006 2267.34 125.5 2258.96 116.993 2250.59 116.884 2236.91 125.255 2228.4 125.342 2228.32 125.431 2228.23 125.52 2228.14L171.35 2182.31 201.88 2212.85ZM461.48 2594.72C453.062 2586.28 453.062 2572.63 461.48 2564.19L507.31 2518.36 537.85 2548.9 492 2594.68C483.556 2603.07 469.924 2603.07 461.48 2594.68ZM1240.32 1846.42 598.89 2487.82 232.38 2121.27 873.82 1479.88C890.1 1463.55 918.57 1463.55 934.9 1479.88L1240.32 1785.31C1257.17 1802.18 1257.17 1829.51 1240.32 1846.38ZM1939.17 372.2C1939.17 253.11 2036.05 156.2 2155.17 156.2 2274.29 156.2 2371.17 253.08 2371.17 372.2 2371.17 491.32 2274.29 588.2 2155.17 588.2 2036.05 588.2 1939.17 491.29 1939.17 372.2ZM1762.29 1430.07 1651.15 1318.94 1809.58 1115.27 1809.58 1323.73C1809.58 1338.03 1810.58 1352.2 1811.66 1366.32ZM2115.88 2166.89 1801.25 2599.52 1651.54 2479.74 1888.72 2124C1891.6 2119.66 1893.68 2114.83 1894.85 2109.75L1982.71 1729.51 2186.24 1933ZM2587.09 2575.12 2414.31 2575.12 2414.31 2056.78C2414.32 2045.32 2409.76 2034.34 2401.65 2026.25L2034.93 1659.52C1945.34 1569.9 1895.93 1450.68 1895.93 1323.77L1895.93 804.14C1895.93 732.7 1954.07 674.56 2025.52 674.56L2284.68 674.56C2356.13 674.56 2414.27 732.7 2414.27 804.14L2414.27 1106.14 2363.64 1077.2 2282.48 833.67 2200.58 861 2287 1120.15C2290.37 1130.24 2297.33 1138.73 2306.57 1144L2570.57 1294.88 2484.27 1438.71 2188.35 1290.77 2021.88 916.19 1943 951.26 2115.75 1340C2119.81 1349.15 2126.92 1356.6 2135.87 1361.08L2414.31 1500.34 2414.31 1538.44C2414.31 1543.94 2415.35 1549.39 2417.37 1554.51L2587.08 1978.68Z" fill="#252628"/><path d="M612.49 2069.31 828.43 1853.37 889.51 1914.45 673.57 2130.39Z" fill="#252628"/><path d="M914.87 1767 1001.23 1680.64 1062.31 1741.71 975.94 1828.08Z" fill="#252628"/></svg>