<svg id="Layer_2" data-name="Layer 2" xmlns="http://www.w3.org/2000/svg" xmlns:xlink="http://www.w3.org/1999/xlink" viewBox="0 0 2732 2732"><defs><style>.cls-1{fill:url(#linear-gradient);}.cls-2,.cls-3{fill:#fff;}.cls-3{font-size:490.57px;font-family:HelveticaNeue-Bold, Helvetica Neue;font-weight:700;letter-spacing:-0.02em;}.cls-4{fill:none;stroke:#fff;stroke-miterlimit:10;stroke-width:8px;}</style><linearGradient id="linear-gradient" x1="434.79" y1="2313.17" x2="2297.21" y2="450.74" gradientUnits="userSpaceOnUse"><stop offset="0" stop-color="#e81334"/><stop offset="1" stop-color="#d7132f"/></linearGradient></defs><path class="cls-1" d="M1549.5,127.7h0A216.76,216.76,0,0,0,1834.21,204h0C1975.4,129.43,2146,227.93,2152,387.48h0a216.76,216.76,0,0,0,208.43,208.43h0c159.55,6,258.05,176.64,183.5,317.83h0a216.76,216.76,0,0,0,76.28,284.71h0c135.16,85,135.16,282,0,367h0A216.77,216.77,0,0,0,2544,1850.17h0c74.55,141.19-23.95,311.8-183.5,317.82h0A216.77,216.77,0,0,0,2152,2376.42h0c-6,159.55-176.64,258-317.83,183.5h0a216.75,216.75,0,0,0-284.71,76.29h0c-85,135.16-282,135.16-367,0h0a216.75,216.75,0,0,0-284.71-76.29h0C756.6,2634.47,586,2536,580,2376.42h0A216.77,216.77,0,0,0,371.53,2168h0c-159.55-6-258-176.63-183.5-317.82h0a216.76,216.76,0,0,0-76.29-284.72h0c-135.16-85-135.16-282,0-367h0A216.75,216.75,0,0,0,188,913.74h0C113.48,772.55,212,601.94,371.53,595.91h0A216.76,216.76,0,0,0,580,387.48h0c6-159.55,176.64-258,317.83-183.49h0A216.76,216.76,0,0,0,1182.5,127.7h0C1267.5-7.47,1464.5-7.47,1549.5,127.7Z"/><path class="cls-2" d="M1366,2622.77c-16.94,0-59.26-4.64-86.32-47.66-60.91-96.89-166.28-154.71-281.86-154.71a329.85,329.85,0,0,0-153.63,38c-45,23.74-83.94,6.63-98.62-1.88s-49-33.69-50.91-84.45c-6.5-172.26-146.54-312.29-318.81-318.79-50.83-1.94-76-36.26-84.44-50.92s-25.63-53.6-1.86-98.6c80.49-152.45,29.23-343.73-116.7-435.52-43.05-27-47.69-69.38-47.69-86.31s4.64-59.26,47.68-86.28c145.94-91.79,197.2-283.07,116.71-435.52-23.74-44.95-6.61-83.94,1.86-98.6s33.61-49,84.43-50.92c172.27-6.5,312.32-146.53,318.83-318.79,1.92-50.84,36.23-76,50.9-84.48s53.64-25.57,98.6-1.86c152.45,80.55,343.74,29.27,435.5-116.7,27-43,69.39-47.65,86.33-47.65s59.25,4.64,86.3,47.65c91.78,146,283.07,197.15,435.52,116.7,45-23.73,84-6.6,98.59,1.89s49,33.58,50.9,84.45c6.5,172.26,146.54,312.29,318.81,318.79,50.84,1.94,76,36.26,84.46,50.92s25.58,53.65,1.85,98.6c-80.49,152.45-29.22,343.75,116.7,435.52,43,27,47.68,69.35,47.68,86.28s-4.64,59.26-47.68,86.31c-145.94,91.79-197.2,283.07-116.69,435.52,23.72,45,6.6,83.91-1.86,98.6s-33.62,49-84.45,50.92c-172.27,6.5-312.32,146.53-318.82,318.79-1.92,50.76-36.23,76-50.89,84.45s-53.62,25.6-98.6,1.88c-152.46-80.52-343.75-29.22-435.52,116.7C1425.24,2618.13,1382.94,2622.77,1366,2622.77ZM997.83,2394.29c124.62,0,238.25,62.39,304,166.9,20.13,32,51.62,35.47,64.22,35.47s44.06-3.47,64.2-35.47c99-157.37,305.34-212.7,469.8-125.88,33.46,17.7,62.45,4.9,73.35-1.37s36.44-25.09,37.87-62.83c7-185.85,158.09-336.92,343.92-343.93,37.82-1.43,56.53-27,62.82-37.87s19-39.93,1.39-73.35c-86.84-164.44-31.55-370.81,125.89-469.79,32-20.14,35.47-51.63,35.47-64.23s-3.46-44.06-35.47-64.2h0c-157.43-99-212.73-305.33-125.89-469.79,17.65-33.43,4.91-62.44-1.39-73.36s-25-36.43-62.83-37.86c-185.82-7-336.89-158.08-343.91-343.93-1.43-37.82-27-56.53-37.87-62.8s-39.84-19.13-73.35-1.41c-164.42,86.8-370.79,31.57-469.81-125.85-20.11-32-51.59-35.49-64.19-35.49s-44.11,3.44-64.22,35.46c-99,157.42-305.35,212.68-469.8,125.88-33.47-17.69-62.45-4.92-73.35,1.38s-36.44,25-37.86,62.83c-7,185.85-158.1,336.92-343.94,343.93C339,738.16,320.32,763.68,314,774.59S295,814.5,312.64,848c86.83,164.43,31.54,370.81-125.89,469.79-32,20.14-35.47,51.6-35.47,64.2s3.45,44.09,35.48,64.2c157.42,99,212.71,305.38,125.88,469.82-17.67,33.48-4.92,62.44,1.39,73.35s25,36.44,62.82,37.87c185.83,7,336.9,158.08,343.92,343.93,1.43,37.76,27,56.5,37.87,62.83s39.92,19.07,73.37,1.37A356.12,356.12,0,0,1,997.83,2394.29Z"/><text class="cls-3" transform="translate(455.85 1783.35)">PROMO</text><path class="cls-4" d="M1031.69,665.75q8.77-31.66,27.27-55.42a129.7,129.7,0,0,1,46.63-37.4q28.14-13.62,66.87-13.64,41.34,0,68.62,14.08a122.46,122.46,0,0,1,44.43,38.28q17.16,24.2,24.2,56.74a324.92,324.92,0,0,1,7,68.62q0,36.11-8.8,66.43t-26.84,52.35q-18,22-46.19,34.31t-66.86,12.32q-40.49,0-68.19-12.76T1055,854.48q-17.16-22.44-24.64-53.68a288.14,288.14,0,0,1-7.47-67.3A251.63,251.63,0,0,1,1031.69,665.75Zm81.82,101.18a118.85,118.85,0,0,0,6.16,33,61.86,61.86,0,0,0,16.71,26q11.43,10.57,32.56,10.57,20.22,0,32.11-10.57a63.88,63.88,0,0,0,17.6-26,119.6,119.6,0,0,0,7-32.55q1.32-17.14,1.32-31.24,0-13.18-1.32-32.1a167.39,167.39,0,0,0-6.59-36.52,77.89,77.89,0,0,0-16.28-29.91q-11-12.32-30.35-12.32-21.12,0-33,11.44a73.79,73.79,0,0,0-18,28.15A129.25,129.25,0,0,0,1114,701q-1.32,19.35-1.32,34.31Q1112.63,749.35,1113.51,766.93ZM1619.4,552.26,1256.92,1206h-76.55l364.25-653.7ZM1485.67,959.61q8.79-30.79,27.27-53.67a129.81,129.81,0,0,1,46.63-36.07q28.15-13.2,66.87-13.2,41.34,0,68.63,13.64a122.09,122.09,0,0,1,44.43,37q17.14,23.32,24.19,55a312,312,0,0,1,7,67.75q0,36.07-8.8,66.86t-26.83,53.68q-18,22.88-46.19,35.62T1622,1198.92q-40.47,0-68.18-13.2t-44.87-36.5q-17.16-23.33-24.64-55a293.87,293.87,0,0,1-7.48-67.74Q1476.87,990.41,1485.67,959.61Zm81.82,100.3a132.28,132.28,0,0,0,6.16,34.75,68.23,68.23,0,0,0,16.72,27.72q11.42,11.44,32.55,11.43,20.24,0,32.12-11.43a70.19,70.19,0,0,0,17.59-27.72,132.16,132.16,0,0,0,7-34.31q1.32-18,1.32-32.11,0-13.2-1.32-31.23a145.21,145.21,0,0,0-6.6-34.32,74.85,74.85,0,0,0-16.28-28.15q-11-11.88-30.35-11.88-21.12,0-33,10.56a67.21,67.21,0,0,0-18,26.39,117,117,0,0,0-7.48,34.32q-1.32,18.47-1.32,33.43Q1566.61,1041.45,1567.49,1059.91Z"/></svg>