<svg id="Layer_1" data-name="Layer 1" xmlns="http://www.w3.org/2000/svg" viewBox="0 0 2732 2732"><defs><style>.cls-1{fill:#252628;}</style></defs><path class="cls-1" d="M1366,28.14c-517.9,0-939.24,421.35-939.24,939.25A937.25,937.25,0,0,0,567,1461.28l745.58,1201.49a78.28,78.28,0,0,0,66.5,37h.62a78.26,78.26,0,0,0,66.53-38.05l726.57-1213.13a938.12,938.12,0,0,0,132.48-481.2C2305.24,449.49,1883.9,28.14,1366,28.14Zm672.42,1340.08L1377.86,2471.14,700,1378.81c-76.36-123.32-117.76-265.58-117.76-411.42,0-431.59,352.17-783.75,783.75-783.75s783.22,352.16,783.22,783.75A782,782,0,0,1,2038.42,1368.22Z"/><path class="cls-1" d="M1366,497.77c-259,0-469.62,210.67-469.62,469.62,0,257.29,207.24,469.62,469.62,469.62,265.61,0,469.62-215.16,469.62-469.62C1835.62,708.44,1625,497.77,1366,497.77Zm0,783.74c-173.54,0-314.12-141.06-314.12-314.12,0-172.64,141.49-314.13,314.12-314.13s313.6,141.49,313.6,314.13C1679.6,1137.93,1542.29,1281.51,1366,1281.51Z"/></svg>